<?xml version="1.0" standalone="no"?><!DOCTYPE svg PUBLIC "-//W3C//DTD SVG 1.1//EN" "http://www.w3.org/Graphics/SVG/1.1/DTD/svg11.dtd"><svg t="1547624536296" class="icon" style="" viewBox="0 0 1024 1024" version="1.1" xmlns="http://www.w3.org/2000/svg" p-id="1641" xmlns:xlink="http://www.w3.org/1999/xlink" width="200" height="200"><defs><style type="text/css"></style></defs><path d="M622.933333 667.733333c173.866667 14.933333 301.866667 64 301.866667 123.733334 0 70.4-183.466667 128-410.666667 128s-410.666667-57.6-410.666666-128c0-58.666667 126.933333-108.8 300.8-123.733334" fill="#C5E3F7" p-id="1642"></path><path d="M525.866667 882.133333c-221.866667 0-402.133333-54.4-410.666667-122.666666-8.533333 9.6-12.8 20.266667-12.8 32 0 70.4 183.466667 128 410.666667 128s410.666667-57.6 410.666666-128v-5.333334c-44.8 55.466667-205.866667 96-397.866666 96z" fill="#068BBF" p-id="1643"></path><path d="M513.066667 936.533333C306.133333 936.533333 84.266667 885.333333 84.266667 790.4c0-84.266667 170.666667-129.066667 317.866666-141.866667 10.666667-1.066667 19.2 6.4 20.266667 17.066667 1.066667 9.6-6.4 19.2-17.066667 20.266667-178.133333 14.933333-283.733333 65.066667-283.733333 105.6 0 45.866667 149.333333 109.866667 392.533333 109.866666S906.666667 837.333333 906.666667 791.466667c0-39.466667-106.666667-89.6-284.8-105.6-9.6-1.066667-17.066667-9.6-17.066667-20.266667 1.066667-9.6 9.6-17.066667 20.266667-17.066667 147.2 12.8 317.866667 57.6 317.866666 141.866667 0 94.933333-221.866667 146.133333-429.866666 146.133333z" fill="" p-id="1644"></path><path d="M477.866667 40.533333h71.466666v774.4h-71.466666z" fill="#C5E3F7" p-id="1645"></path><path d="M549.333333 830.933333h-71.466666c-8.533333 0-16-7.466667-16-16V40.533333c0-8.533333 7.466667-16 16-16h71.466666c8.533333 0 16 7.466667 16 16v774.4c0 8.533333-7.466667 16-16 16z m-55.466666-32H533.333333V56.533333h-39.466666v742.4z" fill="" p-id="1646"></path><path d="M712.533333 333.866667H257.066667l-140.8-96 140.8-96h586.666666v190.933333" fill="#C5E3F7" p-id="1647"></path><path d="M270.933333 321.066667h36.266667L148.266667 212.266667 128 226.133333l140.8 94.933334 37.333333 2.133333" fill="#068BBF" p-id="1648"></path><path d="M712.533333 352H257.066667c-3.2 0-7.466667-1.066667-10.666667-3.2l-140.8-96c-5.333333-3.2-8.533333-9.6-8.533333-14.933333s3.2-11.733333 8.533333-14.933334l140.8-96c3.2-2.133333 6.4-3.2 10.666667-3.2h586.666666c9.6 0 18.133333 8.533333 18.133334 18.133334v190.933333c0 9.6-8.533333 18.133333-18.133334 18.133333s-18.133333-8.533333-18.133333-18.133333V161.066667H262.4l-114.133333 77.866666 114.133333 77.866667h450.133333c9.6 0 18.133333 8.533333 18.133334 18.133333 0 8.533333-8.533333 17.066667-18.133334 17.066667z" fill="" p-id="1649"></path><path d="M281.6 578.133333h473.6l140.8-96-140.8-96H278.4v138.666667" fill="#C5E3F7" p-id="1650"></path><path d="M756.266667 594.133333H281.6c-8.533333 0-16-7.466667-16-16s7.466667-16 16-16h469.333333l117.333334-80-117.333334-80H294.4v122.666667c0 8.533333-7.466667 16-16 16s-16-7.466667-16-16v-138.666667c0-8.533333 7.466667-16 16-16h477.866667c3.2 0 6.4 1.066667 8.533333 3.2l140.8 96c4.266667 3.2 7.466667 7.466667 7.466667 12.8s-2.133333 10.666667-7.466667 12.8l-140.8 96c-2.133333 2.133333-5.333333 3.2-8.533333 3.2z" fill="" p-id="1651"></path><path d="M581.333333 194.133333h-22.4c-6.4 0-10.666667-4.266667-10.666666-10.666666s4.266667-10.666667 10.666666-10.666667h22.4c6.4 0 10.666667 4.266667 10.666667 10.666667s-5.333333 10.666667-10.666667 10.666666z" fill="#FFFFFF" p-id="1652"></path><path d="M789.333333 195.2H646.4c-6.4 0-10.666667-4.266667-10.666667-10.666667s4.266667-10.666667 10.666667-10.666666H789.333333c6.4 0 10.666667 4.266667 10.666667 10.666666s-4.266667 10.666667-10.666667 10.666667z" fill="#FFFFFF" p-id="1653"></path></svg>